PathFileType	4	(X/Y/Z)	G:/Ayumi_testdata/vicon/updated_static_jc/static_00.trc	
DataRate	CameraRate	NumFrames	NumMarkers	Units	OrigDataRate	OrigDataStartFrame	OrigNumFrames	
200.00	200.00	4	66	mm	200.00	259	295	
Frame#	Time	LASI			RASI			RSACR			LSACR			USACR			LBAR			RBAR			RHEE			RMT1			RMT5			RMT2			LHEE			LMT1			LMT5			LMT2			LMMAL			LMFC			LLFC			LLMAL			LTIB4			LTIB2			LTIB3			LTIB1			RMMAL			RMFC			RLFC			RLMAL			RTIB1			RTIB2			RTIB3			RTHI1			RTHI4			RTHI3			RTHI2			LTHI1			LTHI4			LTHI3			LTHI2			FHD			LBHD			RBHD			C7			T10			CLAV			LSHO			RSHO			LRAD			LUL			LRFIN			RRAD			RUL			RUFIN			RLEP			RMEP			LLEP			LMEP			LDUPA			LMUPA			LUUPA			RDUPA			RUUPA			RMUPA			RKJC			LKJC			LAKJC			RAKJC			
		X1	Y1	Z1	X2	Y2	Z2	X3	Y3	Z3	X4	Y4	Z4	X5	Y5	Z5	X6	Y6	Z6	X7	Y7	Z7	X8	Y8	Z8	X9	Y9	Z9	X10	Y10	Z10	X11	Y11	Z11	X12	Y12	Z12	X13	Y13	Z13	X14	Y14	Z14	X15	Y15	Z15	X16	Y16	Z16	X17	Y17	Z17	X18	Y18	Z18	X19	Y19	Z19	X20	Y20	Z20	X21	Y21	Z21	X22	Y22	Z22	X23	Y23	Z23	X24	Y24	Z24	X25	Y25	Z25	X26	Y26	Z26	X27	Y27	Z27	X28	Y28	Z28	X29	Y29	Z29	X30	Y30	Z30	X31	Y31	Z31	X32	Y32	Z32	X33	Y33	Z33	X34	Y34	Z34	X35	Y35	Z35	X36	Y36	Z36	X37	Y37	Z37	X38	Y38	Z38	X39	Y39	Z39	X40	Y40	Z40	X41	Y41	Z41	X42	Y42	Z42	X43	Y43	Z43	X44	Y44	Z44	X45	Y45	Z45	X46	Y46	Z46	X47	Y47	Z47	X48	Y48	Z48	X49	Y49	Z49	X50	Y50	Z50	X51	Y51	Z51	X52	Y52	Z52	X53	Y53	Z53	X54	Y54	Z54	X55	Y55	Z55	X56	Y56	Z56	X57	Y57	Z57	X58	Y58	Z58	X59	Y59	Z59	X60	Y60	Z60	X61	Y61	Z61	X62	Y62	Z62	X63	Y63	Z63	X64	Y64	Z64	X65	Y65	Z65	X66	Y66	Z66	

259	1.290	134.57222	762.18475	918.41644	130.55405	984.59888	918.99377	310.27823	912.23108	949.97247	309.38251	852.37140	953.23926	298.63077	882.23004	966.36902	1270.85034	-346.47501	26.31347	1226.41650	1876.92676	26.27433	323.08038	1019.64996	39.82965	128.17896	1043.33240	43.44629	165.07245	1113.68396	34.82082	140.17638	1079.96399	42.69812	326.27045	745.15887	45.81801	134.40005	736.44818	46.33079	170.02623	662.79694	33.37006	143.18837	698.03351	45.91965	276.70892	778.68646	72.93672	233.16455	829.02838	456.92911	219.46385	721.40210	454.01941	278.82413	700.95380	69.13410	290.36676	691.43591	209.55736	314.06674	691.35516	270.88330	263.56509	684.48309	268.13852	301.76895	686.98492	314.27054	275.19391	994.06549	68.35893	235.55548	935.37665	446.57187	220.92540	1041.26746	461.35043	284.69016	1068.61316	72.23682	257.33423	1082.70508	319.25244	307.78305	1077.16663	313.95966	276.78442	1081.31165	256.12604	242.55835	1060.01392	783.84052	243.18845	1064.88184	635.07556	191.92590	1066.61658	637.09766	219.71132	1070.19177	697.18085	239.01791	698.64117	778.92773	236.76958	694.97260	646.59363	186.11433	693.39191	637.56848	200.63737	689.17822	701.31818	131.24321	775.48077	1592.92322	242.04968	786.27753	1575.92700	253.80855	909.70795	1571.22766	264.01154	857.88684	1391.45288	286.67310	877.33063	1007.45380	142.09169	872.71814	1328.43115	245.75864	725.20941	1381.04517	237.68677	986.65491	1397.16345	167.60507	222.71736	1358.10803	208.24384	222.36748	1353.82581	154.39699	130.71822	1337.31384	243.07474	1500.46252	1391.81848	289.96667	1499.49829	1385.75635	237.51831	1590.62744	1394.28162	294.94525	1271.26624	1331.51843	256.80191	1271.98853	1297.88989	223.03041	454.25693	1300.29602	182.11984	466.83978	1277.90186	239.00739	506.21005	1354.02161	203.03551	536.68811	1371.57703	239.88118	585.47156	1362.59192	267.74503	1205.50269	1383.61877	258.35925	1143.81433	1385.00708	217.54688	1212.10474	1386.57935	228.24044	988.32205	453.96115	226.31420	775.21524	455.47426	277.76653	739.82013	71.03541	279.94203	1031.33932	70.29787 
260	1.295	134.58310	762.19513	918.41974	130.56918	984.61432	918.99530	310.29608	912.23798	949.97815	309.40182	852.37909	953.24475	298.64169	882.24255	966.36816	1270.82300	-346.49612	26.28832	1226.40063	1876.93652	26.29444	323.08594	1019.63556	39.83310	128.18753	1043.32922	43.44999	165.08020	1113.68665	34.81995	140.17636	1079.97388	42.69850	326.27155	745.15369	45.80913	134.40112	736.44354	46.33370	170.02821	662.79102	33.37585	143.18819	698.03009	45.91602	276.70288	778.67194	72.93840	233.15845	829.03333	456.93536	219.46164	721.40924	454.02011	278.82114	700.95142	69.11890	290.37704	691.43396	209.55588	314.06638	691.36481	270.88669	263.57550	684.47278	268.14188	301.77435	686.97876	314.28186	275.19653	994.07135	68.35477	235.56776	935.37415	446.56732	220.92349	1041.26672	461.35925	284.68875	1068.61328	72.22993	257.32648	1082.70740	319.26028	307.77402	1077.16821	313.96210	276.78046	1081.33215	256.12109	242.57993	1060.01563	783.83759	243.22404	1064.87390	635.06091	191.93576	1066.65430	637.09888	219.82718	1070.13965	697.09009	239.02977	698.65173	778.92493	236.77519	694.98608	646.59131	186.11977	693.41180	637.57196	200.65036	689.19824	701.30542	131.25586	775.47943	1592.91956	242.04784	786.26660	1575.93225	253.80055	909.69202	1571.22083	264.01736	857.88391	1391.45630	286.68808	877.33435	1007.45563	142.10545	872.70709	1328.44312	245.76624	725.21869	1381.05042	237.68399	986.65570	1397.16785	167.66652	222.70633	1358.15625	208.29218	222.36311	1353.87988	154.46475	130.70886	1337.37427	243.11285	1500.45850	1391.82495	290.01501	1499.49207	1385.75928	237.56699	1590.62622	1394.29114	294.97003	1271.24414	1331.53235	256.82156	1271.99060	1297.89417	223.05579	454.24619	1300.31824	182.14616	466.83224	1277.92786	238.97815	506.25699	1353.94958	203.06192	536.68402	1371.59509	239.88972	585.46643	1362.59521	267.75046	1205.49890	1383.63696	258.37595	1143.80750	1385.01904	217.57262	1212.10645	1386.58813	228.24563	988.32043	453.96329	226.31004	775.22128	455.47774	277.76201	739.81168	71.02865	279.94264	1031.34232	70.29235 
261	1.300	134.59868	762.20728	918.42871	130.58115	984.61761	918.99548	310.30966	912.24261	949.97296	309.42456	852.37598	953.24658	298.66718	882.23950	966.37109	1270.82104	-346.47473	26.28294	1226.39636	1876.95264	26.29957	323.07944	1019.63702	39.83593	128.17955	1043.32739	43.45970	165.01384	1113.80396	34.98570	140.18079	1079.96753	42.69886	326.26544	745.15558	45.80911	134.40352	736.45020	46.33146	170.02950	662.80139	33.37085	143.18260	698.02917	45.92169	276.70129	778.67950	72.94099	233.16679	829.04272	456.93704	219.47513	721.41132	454.02219	278.82401	700.96265	69.12177	290.36441	691.43646	209.55180	314.07819	691.35315	270.86472	263.57980	684.48022	268.14063	301.78848	686.98511	314.27353	275.20230	994.08167	68.35667	235.57147	935.39093	446.57492	220.94514	1041.26929	461.35211	284.68503	1068.61682	72.23785	257.35117	1082.70398	319.25293	307.80106	1077.17078	313.96127	276.78693	1081.33484	256.11386	242.57904	1060.02588	783.85400	243.23090	1064.88367	635.08344	191.96980	1066.61133	637.11652	219.83536	1070.14880	697.08685	239.04628	698.67169	778.93665	236.66608	694.61475	646.55621	186.12679	693.41687	637.57263	200.65686	689.22168	701.31055	131.25049	775.46960	1592.91626	242.04488	786.25989	1575.93579	253.80959	909.69037	1571.23694	264.01608	857.87982	1391.46521	286.69852	877.34418	1007.46124	142.12241	872.69360	1328.46313	245.77924	725.21497	1381.06702	237.67073	986.65881	1397.17603	167.71622	222.70572	1358.19922	208.34009	222.36076	1353.93420	154.51001	130.68846	1337.44446	243.15384	1500.45288	1391.83643	290.05359	1499.47742	1385.76855	237.61235	1590.62366	1394.29517	294.98798	1271.25000	1331.53931	256.83786	1271.98853	1297.90149	223.07202	454.25238	1300.34460	182.15639	466.82889	1277.95825	239.01855	506.25952	1353.96387	203.06479	536.68011	1371.62744	239.97523	585.44867	1362.58618	267.76401	1205.48950	1383.65540	258.38290	1143.80286	1385.03027	217.57233	1212.09814	1386.58118	228.25831	988.33011	453.96352	226.32096	775.22702	455.47961	277.76265	739.82108	71.03138	279.94366	1031.34924	70.29726 
262	1.305	134.60855	762.23132	918.43134	130.59943	984.62616	918.99280	310.32379	912.26270	949.98584	309.43875	852.38641	953.24872	298.69354	882.25677	966.37610	1270.83264	-346.46368	26.28986	1226.39661	1876.93494	26.29032	323.07724	1019.64178	39.83258	128.17078	1043.34814	43.44652	165.07910	1113.68750	34.82441	140.16583	1079.96851	42.69388	326.26413	745.16022	45.80632	134.40073	736.44849	46.33128	170.01064	662.78778	33.38708	143.18335	698.03009	45.92229	276.70435	778.68097	72.94022	233.17686	829.04547	456.95407	219.49168	721.41260	454.02209	278.80261	700.95398	69.12368	290.39063	691.44867	209.54976	314.09598	691.36169	270.86560	263.58276	684.48358	268.14282	301.78195	686.96680	314.30737	275.19373	994.06958	68.35079	235.58380	935.38721	446.57651	220.95424	1041.28235	461.35480	284.68674	1068.61731	72.23823	257.35593	1082.71716	319.26450	307.80945	1077.16907	313.95270	276.80399	1081.34143	256.12759	242.60468	1060.02600	783.83838	243.25302	1064.86938	635.08228	191.97795	1066.63245	637.10773	219.84897	1070.15820	697.08099	239.06339	698.68573	778.93463	236.80244	695.03528	646.60663	186.14330	693.42511	637.57257	200.67180	689.23230	701.31879	131.25237	775.46088	1592.91492	242.04510	786.25897	1575.94299	253.79988	909.68274	1571.23450	264.01416	857.88660	1391.46350	286.72217	877.35529	1007.46545	142.12703	872.69342	1328.47644	245.79533	725.21411	1381.10461	237.67345	986.65674	1397.18140	167.75812	222.69983	1358.24792	208.37569	222.36848	1353.98022	154.55255	130.68071	1337.51636	243.19539	1500.45569	1391.83655	290.09448	1499.47839	1385.76575	237.66231	1590.62878	1394.29785	295.00290	1271.23718	1331.54993	256.85330	1271.98364	1297.90942	223.09869	454.24753	1300.36768	182.18042	466.81906	1277.98877	239.04491	506.24652	1353.98584	203.07718	536.68164	1371.63647	239.94682	585.45813	1362.65967	267.77768	1205.49817	1383.66687	258.39279	1143.79773	1385.04309	217.58612	1212.08521	1386.58484	228.26902	988.33478	453.96565	226.33427	775.22903	455.48808	277.75348	739.81747	71.03195	279.94023	1031.34344	70.29451 
